HIERARCHY
ROOT Hips
{
	OFFSET 0.00000 0.00000 0.00000
	CHANNELS 6 Xposition Yposition Zposition Yrotation Zrotation Xrotation 
	JOINT Lumbar
	{
		OFFSET 0 0 0
		CHANNELS 3 Zrotation Xrotation Yrotation
		JOINT Neck
		{
			OFFSET 0.00 0.2701 0.00
			CHANNELS 3 Zrotation Xrotation Yrotation
			End Site
			{
				OFFSET 0.00 0.1379 0.00
			}
		}
		JOINT RightShoulder
		{
			OFFSET 0.0119 0.2289 0.1181
			CHANNELS 3 Zrotation Xrotation Yrotation
			JOINT RightElbow
			{
				OFFSET 0.00 -0.1475 0.00
				CHANNELS 2 Zrotation Yrotation
				JOINT RightWrist
				{
					OFFSET 0.00 -0.1605 0.00
					CHANNELS 2 Zrotation Xrotation
					End Site
					{
						OFFSET 0.0040 -0.1068 0.0006
					}
				}
			}
		}
		JOINT LeftShoulder
		{
			OFFSET 0.0119 0.2289 -0.1181
			CHANNELS 3 Zrotation Xrotation Yrotation
			JOINT LeftElbow
			{
				OFFSET 0.00 -0.1475 0.00
				CHANNELS 2 Zrotation Yrotation
				JOINT LeftWrist
				{
					OFFSET 0.00 -0.1605 0.00
					CHANNELS 2 Zrotation Xrotation
					End Site
					{
						OFFSET 0.0040 -0.1068 -0.0006
					}
				}
			}
		}
	}
	JOINT RightHip
	{
		OFFSET 0.0316 -0.0424 0.0458
		CHANNELS 3 Zrotation Xrotation Yrotation
		JOINT RightKnee
		{
			OFFSET 0.00 -0.2438 0.00
			CHANNELS 1 Zrotation
			JOINT RightAnkle
			{
				OFFSET 0.00 -0.2449 0.00
				CHANNELS 3 Zrotation Xrotation Yrotation
				End Site
				{
					OFFSET 0.1237 -0.0542 0.0051
				}
			}
		}
	}
	JOINT LeftHip
	{
		OFFSET 0.0316 -0.0424 -0.0458
		CHANNELS 3 Zrotation Xrotation Yrotation
		JOINT LeftKnee
		{
			OFFSET 0.00 -0.2438 0.00
			CHANNELS 1 Zrotation
			JOINT LeftAnkle
			{
				OFFSET 0.00 -0.2449 0.00
				CHANNELS 3 Zrotation Xrotation Yrotation
				End Site
				{
					OFFSET 0.1237 -0.0542 -0.0051
				}
			}
		}
	}
}
MOTION
Frames: 22
Frame Time: 0.02
2e-05 0 4e-05 -179.63924 -39.7669 -3.62722 48.52441 3.05904 -1.91441 -14.8124 -1.76595 -0.27269 55.33298 -103.56258 64.17148 8.15524 91.243 7.9027 -0.31124 8.49355 105.91853 -64.05513 9.94663 -85.06003 2.84675 1.10307 44.39412 -2.87578 -4.5673 -21.6377 -6.97953 -3.45876 -2.47876 48.11044 8.68176 0.80164 -26.9143 -7.19802 3.50109 2.50394
-2e-05 -0 8e-05 -179.64114 -39.77327 -3.62957 48.52227 3.06125 -1.90703 -14.81307 -1.75048 -0.27307 55.4442 -103.55235 64.17142 8.13943 91.2193 7.8774 -0.30017 8.60881 105.89215 -64.05745 9.94746 -85.05836 2.83941 1.07788 44.39404 -2.87822 -4.57066 -21.63528 -6.97952 -3.46101 -2.4783 48.11106 8.67364 0.77444 -26.91442 -7.19961 3.50835 2.50769
-7e-05 -1e-05 0.00011 -179.64296 -39.77931 -3.6319 48.51982 3.06344 -1.8997 -14.81377 -1.73506 -0.27348 55.55544 -103.54211 64.17137 8.12366 91.19568 7.85211 -0.28912 8.72387 105.8658 -64.05965 9.94829 -85.05671 2.83204 1.05271 44.3936 -2.88067 -4.57403 -21.63285 -6.97951 -3.46325 -2.47784 48.11133 8.66554 0.74737 -26.91452 -7.20119 3.51557 2.51143
-0.00012 -1e-05 0.00014 -179.64483 -39.78558 -3.63424 48.51761 3.06564 -1.89235 -14.81445 -1.71964 -0.27387 55.66636 -103.53191 64.17131 8.10789 91.17205 7.82688 -0.27807 8.83878 105.8395 -64.062 9.94912 -85.05505 2.82473 1.02759 44.39343 -2.8831 -4.57739 -21.63043 -6.97951 -3.46549 -2.47739 48.11186 8.65745 0.72026 -26.91463 -7.20277 3.52281 2.51517
-0.00017 -2e-05 0.00017 -179.64683 -39.79237 -3.63664 48.5159 3.06787 -1.88493 -14.81509 -1.70417 -0.27423 55.77718 -103.52174 64.17126 8.09209 91.14833 7.80166 -0.26702 8.95389 105.81318 -64.06436 9.94992 -85.05336 2.81745 1.00246 44.39385 -2.88552 -4.58069 -21.62804 -6.97951 -3.46774 -2.47693 48.11296 8.64932 0.69298 -26.91477 -7.20438 3.53008 2.51894
-0.00022 -2e-05 0.0002 -179.6483 -39.79688 -3.6388 48.51195 3.06999 -1.87777 -14.81591 -1.68882 -0.27474 55.88934 -103.51136 64.1712 8.07642 91.12491 7.77621 -0.25598 9.06887 105.78677 -64.06616 9.95083 -85.0518 2.80987 0.97722 44.39163 -2.88803 -4.58422 -21.62554 -6.97947 -3.46997 -2.47647 48.1115 8.64129 0.66635 -26.91477 -7.2059 3.5372 2.52262
-0.00026 -3e-05 0.00024 -179.65078 -39.80579 -3.64143 48.51231 3.07231 -1.87012 -14.81636 -1.67327 -0.27494 55.99852 -103.50139 64.17115 8.06045 91.10093 7.75128 -0.24491 9.18382 105.7606 -64.06946 9.95152 -85.04999 2.80296 0.95223 44.39451 -2.89035 -4.58731 -21.62325 -6.97951 -3.47224 -2.47601 48.115 8.6331 0.63849 -26.91505 -7.20758 3.54461 2.52646
-0.00031 -3e-05 0.00027 -179.6524 -39.81096 -3.64365 48.50902 3.07446 -1.86288 -14.81717 -1.6579 -0.27542 56.11073 -103.49107 64.1711 8.04488 91.07744 7.72584 -0.23392 9.29912 105.73413 -64.07067 9.95244 -85.0484 2.79535 0.92699 44.39306 -2.89284 -4.59076 -21.62078 -6.97948 -3.47447 -2.47555 48.11429 8.62502 0.61165 -26.9151 -7.20913 3.55177 2.53017
-0.00036 -4e-05 0.0003 -179.65267 -39.81026 -3.64525 48.49992 3.07633 -1.85631 -14.81838 -1.64277 -0.2763 56.22563 -103.48022 64.17104 8.02928 91.05463 7.69987 -0.22278 9.41362 105.70762 -64.07211 9.95353 -85.04713 2.78718 0.90152 44.38476 -2.89558 -4.59484 -21.61801 -6.97937 -3.47666 -2.47511 48.10692 8.61718 0.58651 -26.91476 -7.21047 3.55857 2.53364
-0.00041 -5e-05 0.00033 -179.65981 -39.83939 -3.65006 48.52022 3.0796 -1.84641 -14.81713 -1.6263 -0.27505 56.32204 -103.47211 64.171 8.01228 91.02816 7.67721 -0.21177 9.52907 105.68229 -64.08063 9.95333 -85.04417 2.78314 0.87762 44.41122 -2.89701 -4.59589 -21.61672 -6.97971 -3.4791 -2.47459 48.13333 8.60827 0.55297 -26.91633 -7.21286 3.56728 2.53827
-0.00046 -5e-05 0.00036 -179.65302 -39.80817 -3.64832 48.48111 3.08008 -1.8432 -14.82117 -1.61262 -0.2782 56.45935 -103.45842 64.17092 7.99925 91.00925 7.64743 -0.20094 9.64483 105.65386 -64.06884 9.95602 -85.04466 2.76982 0.85023 44.36737 -2.9011 -4.60293 -21.61248 -6.97912 -3.481 -2.47424 48.09139 8.60145 0.53624 -26.91405 -7.21311 3.57208 2.54056
-0.00051 -5e-05 0.00038 -179.60296 -39.5879 -3.62665 48.25513 3.0715 -1.86126 -14.83918 -1.60678 -0.29433 56.69612 -103.42754 64.17074 7.98996 91.01242 7.59819 -0.18692 9.74426 105.62166 -64.04259 9.9658 -85.05582 2.73506 0.81433 44.10315 -2.91341 -4.63 -21.59846 -6.9758 -3.48147 -2.47442 47.83549 8.60195 0.57428 -26.89968 -7.20679 3.56489 2.53557
-0.00057 -6e-05 0.0004 -179.53978 -39.31104 -3.59874 47.9736 3.06037 -1.88553 -14.86264 -1.60368 -0.31473 56.97736 -103.39144 64.17052 7.9866 91.02274 7.54128 -0.17378 9.84834 105.58526 -63.9868 9.97894 -85.07037 2.69005 0.77454 43.77305 -2.92824 -4.66255 -21.58176 -6.97156 -3.48137 -2.47476 47.5155 8.6043 0.62792 -26.8817 -7.19843 3.55397 2.52836
-0.00063 -6e-05 0.00042 -179.48598 -39.07577 -3.57504 47.73342 3.05136 -1.90502 -14.88389 -1.5992 -0.3326 57.24534 -103.35887 64.17033 7.98445 91.0292 7.4885 -0.16261 9.96006 105.54794 -63.91951 9.99071 -85.08242 2.64736 0.73605 43.49151 -2.94125 -4.69006 -21.56738 -6.96788 -3.48151 -2.47501 47.24256 8.60468 0.66843 -26.86638 -7.19147 3.5456 2.52272
-0.00068 -7e-05 0.00044 -179.41797 -38.77472 -3.54571 47.42638 3.03839 -1.93267 -14.90386 -1.59534 -0.35293 57.47994 -103.32119 64.17011 7.96334 91.03908 7.43512 -0.14133 10.02593 105.52341 -63.96356 10.00058 -85.09796 2.61533 0.70028 43.1328 -2.95696 -4.72779 -21.54843 -6.96365 -3.48178 -2.47538 46.89533 8.60961 0.73321 -26.84684 -7.18256 3.53376 2.51478
-0.00074 -7e-05 0.00046 -179.37614 -38.59559 -3.5264 47.24388 3.03295 -1.94496 -14.92798 -1.59075 -0.36918 57.79981 -103.29317 64.1699 7.98625 91.04247 7.3785 -0.14146 10.19429 105.47015 -63.76097 10.01676 -85.10772 2.55763 0.65698 42.91726 -2.96786 -4.74625 -21.53828 -6.96029 -3.4816 -2.47549 46.68574 8.60581 0.75269 -26.83512 -7.17714 3.5281 2.511
-0.0008 -7e-05 0.00048 -179.41243 -38.78165 -3.5383 47.4325 3.04991 -1.91193 -14.96055 -1.58423 -0.37296 58.3049 -103.28951 64.17002 8.10175 91.03302 7.33873 -0.20034 10.59836 105.34768 -62.95391 10.03772 -85.09445 2.44033 0.60228 43.13031 -2.96308 -4.70381 -21.55374 -6.96002 -3.48068 -2.47504 46.88883 8.57487 0.62962 -26.84682 -7.18258 3.54169 2.52021
-0.00085 -8e-05 0.0005 -179.47504 -39.08972 -3.56013 47.74593 3.07436 -1.86347 -14.99744 -1.57672 -0.37251 58.90522 -103.2955 64.16989 8.26582 91.01384 7.29233 -0.28142 11.11683 105.19451 -61.88908 10.06807 -85.07617 2.29581 0.53879 43.48665 -2.9537 -4.64286 -21.57806 -6.96057 -3.47927 -2.47427 47.22961 8.53553 0.46278 -26.86635 -7.19145 3.56137 2.53351
-0.00091 -8e-05 0.00052 -179.52387 -39.33223 -3.5761 47.99321 3.09476 -1.82299 -15.03341 -1.56918 -0.3741 59.48319 -103.30058 64.16996 8.42654 90.99676 7.23225 -0.35165 11.6097 105.04971 -60.89375 10.10071 -85.0646 2.15817 0.47352 43.76603 -2.94764 -4.59472 -21.59787 -6.96045 -3.47784 -2.47347 47.49612 8.5018 0.32513 -26.88165 -7.19824 3.57741 2.54428
-0.00097 -9e-05 0.00055 -179.57988 -39.61515 -3.59755 48.27802 3.11779 -1.77869 -15.06504 -1.56384 -0.37537 59.9596 -103.29453 64.17052 8.51118 90.9966 7.23901 -0.42249 11.9799 104.92924 -60.08879 10.10196 -85.03544 2.04383 0.43157 44.09267 -2.93657 -4.52871 -21.61954 -6.96154 -3.47739 -2.47339 47.80935 8.46075 0.14946 -26.89961 -7.20713 3.59701 2.55777
-0.00103 -9e-05 0.00057 -179.62742 -39.84399 -3.61004 48.51542 3.13714 -1.73855 -15.10683 -1.55356 -0.37623 60.6881 -103.30935 64.16891 8.76228 90.9502 7.10928 -0.5006 12.647 104.74969 -58.83874 10.17559 -85.04045 1.87403 0.34019 44.35632 -2.93469 -4.49483 -21.6396 -6.96033 -3.47482 -2.47176 48.05934 8.43272 0.04148 -26.91401 -7.21252 3.61071 2.56665
-0.00113 -9e-05 0.00057 -179.64465 -39.89062 -3.59535 48.58826 3.14453 -1.7141 -15.17427 -1.53039 -0.37695 61.93163 -103.42388 64.17161 9.49518 90.85759 6.58448 -0.56298 13.98023 104.42422 -56.32146 10.40531 -85.14998 1.56208 0.10532 44.40628 -2.9604 -4.55952 -21.65212 -6.95262 -3.46626 -2.46574 48.09667 8.44452 0.1397 -26.9162 -7.2072 3.60624 2.56135
